<svg xmlns="http://www.w3.org/2000/svg" width="512" height="512" viewBox="0 0 512 512" role="img" aria-label="QR de pago de muestra">
  <rect width="512" height="512" fill="#ffffff"/>
  <rect x="24" y="24" width="464" height="464" rx="20" fill="#ffffff" stroke="#0f172a" stroke-width="12"/>

  <rect x="56" y="56" width="128" height="128" fill="#0f172a"/>
  <rect x="76" y="76" width="88" height="88" fill="#ffffff"/>
  <rect x="94" y="94" width="52" height="52" fill="#0f172a"/>

  <rect x="328" y="56" width="128" height="128" fill="#0f172a"/>
  <rect x="348" y="76" width="88" height="88" fill="#ffffff"/>
  <rect x="366" y="94" width="52" height="52" fill="#0f172a"/>

  <rect x="56" y="328" width="128" height="128" fill="#0f172a"/>
  <rect x="76" y="348" width="88" height="88" fill="#ffffff"/>
  <rect x="94" y="366" width="52" height="52" fill="#0f172a"/>

  <rect x="232" y="228" width="20" height="20" fill="#0f172a"/>
  <rect x="252" y="228" width="20" height="20" fill="#0f172a"/>
  <rect x="292" y="228" width="20" height="20" fill="#0f172a"/>
  <rect x="332" y="228" width="20" height="20" fill="#0f172a"/>
  <rect x="372" y="228" width="20" height="20" fill="#0f172a"/>

  <rect x="212" y="248" width="20" height="20" fill="#0f172a"/>
  <rect x="272" y="248" width="20" height="20" fill="#0f172a"/>
  <rect x="312" y="248" width="20" height="20" fill="#0f172a"/>
  <rect x="352" y="248" width="20" height="20" fill="#0f172a"/>
  <rect x="392" y="248" width="20" height="20" fill="#0f172a"/>

  <rect x="232" y="268" width="20" height="20" fill="#0f172a"/>
  <rect x="292" y="268" width="20" height="20" fill="#0f172a"/>
  <rect x="332" y="268" width="20" height="20" fill="#0f172a"/>
  <rect x="372" y="268" width="20" height="20" fill="#0f172a"/>

  <rect x="212" y="288" width="20" height="20" fill="#0f172a"/>
  <rect x="252" y="288" width="20" height="20" fill="#0f172a"/>
  <rect x="272" y="288" width="20" height="20" fill="#0f172a"/>
  <rect x="312" y="288" width="20" height="20" fill="#0f172a"/>
  <rect x="352" y="288" width="20" height="20" fill="#0f172a"/>

  <rect x="232" y="308" width="20" height="20" fill="#0f172a"/>
  <rect x="272" y="308" width="20" height="20" fill="#0f172a"/>
  <rect x="332" y="308" width="20" height="20" fill="#0f172a"/>
  <rect x="392" y="308" width="20" height="20" fill="#0f172a"/>

  <rect x="212" y="328" width="20" height="20" fill="#0f172a"/>
  <rect x="252" y="328" width="20" height="20" fill="#0f172a"/>
  <rect x="312" y="328" width="20" height="20" fill="#0f172a"/>
  <rect x="352" y="328" width="20" height="20" fill="#0f172a"/>
  <rect x="392" y="328" width="20" height="20" fill="#0f172a"/>

  <rect x="232" y="348" width="20" height="20" fill="#0f172a"/>
  <rect x="292" y="348" width="20" height="20" fill="#0f172a"/>
  <rect x="372" y="348" width="20" height="20" fill="#0f172a"/>

  <rect x="212" y="368" width="20" height="20" fill="#0f172a"/>
  <rect x="272" y="368" width="20" height="20" fill="#0f172a"/>
  <rect x="332" y="368" width="20" height="20" fill="#0f172a"/>
  <rect x="392" y="368" width="20" height="20" fill="#0f172a"/>

  <rect x="232" y="388" width="20" height="20" fill="#0f172a"/>
  <rect x="252" y="388" width="20" height="20" fill="#0f172a"/>
  <rect x="292" y="388" width="20" height="20" fill="#0f172a"/>
  <rect x="332" y="388" width="20" height="20" fill="#0f172a"/>
  <rect x="352" y="388" width="20" height="20" fill="#0f172a"/>
  <rect x="392" y="388" width="20" height="20" fill="#0f172a"/>

  <text x="256" y="474" text-anchor="middle" font-family="Arial, sans-serif" font-size="20" fill="#334155">QR DE MUESTRA</text>
</svg>

